<svg width="551" height="160" viewBox="0 0 551 160" fill="none" xmlns="http://www.w3.org/2000/svg">
<path d="M43.6754 0H0V43.6754H43.6754V0Z" fill="#40BA21"/>
<path d="M160.074 0H116.414V116.339H101.86V0H58.1993V159.985H94.5684V160H138.244V159.985H160.074V0Z" fill="#40BA21"/>
<path d="M43.6754 58.1548H0V159.985H43.6754V58.1548Z" fill="#40BA21"/>
<path d="M217.86 28.3581H226.502V65.6993H217.86V28.3581Z" fill="black"/>
<path d="M269.611 28.3581V65.6993H262.516L243.899 43.0279V65.6993H235.363V28.3581H242.512L261.076 51.0296V28.3581H269.611Z" fill="black"/>
<path d="M312.693 28.3581V65.6993H305.598L286.981 43.0279V65.6993H278.445V28.3581H285.594L304.158 51.0296V28.3581H312.693Z" fill="black"/>
<path d="M339.611 66.3395C335.735 66.3395 332.232 65.5037 329.102 63.8323C326.008 62.1608 323.572 59.867 321.794 56.9508C320.052 53.9991 319.18 50.6917 319.18 47.0287C319.18 43.3657 320.052 40.0761 321.794 37.16C323.572 34.2082 326.008 31.8966 329.102 30.2252C332.232 28.5537 335.735 27.718 339.611 27.718C343.488 27.718 346.973 28.5537 350.067 30.2252C353.161 31.8966 355.597 34.2082 357.375 37.16C359.153 40.0761 360.042 43.3657 360.042 47.0287C360.042 50.6917 359.153 53.9991 357.375 56.9508C355.597 59.867 353.161 62.1608 350.067 63.8323C346.973 65.5037 343.488 66.3395 339.611 66.3395ZM339.611 58.9779C341.816 58.9779 343.808 58.48 345.586 57.4843C347.364 56.4529 348.751 55.0304 349.747 53.2167C350.778 51.403 351.294 49.3403 351.294 47.0287C351.294 44.7171 350.778 42.6545 349.747 40.8407C348.751 39.027 347.364 37.6223 345.586 36.6265C343.808 35.5952 341.816 35.0795 339.611 35.0795C337.406 35.0795 335.415 35.5952 333.637 36.6265C331.859 37.6223 330.454 39.027 329.422 40.8407C328.427 42.6545 327.929 44.7171 327.929 47.0287C327.929 49.3403 328.427 51.403 329.422 53.2167C330.454 55.0304 331.859 56.4529 333.637 57.4843C335.415 58.48 337.406 58.9779 339.611 58.9779Z" fill="black"/>
<path d="M382.7 28.3581C386.008 28.3581 388.871 28.9093 391.289 30.0118C393.743 31.1142 395.628 32.679 396.943 34.7061C398.259 36.7332 398.917 39.1337 398.917 41.9076C398.917 44.646 398.259 47.0465 396.943 49.1092C395.628 51.1362 393.743 52.701 391.289 53.8035C388.871 54.8704 386.008 55.4038 382.7 55.4038H375.179V65.6993H366.537V28.3581H382.7ZM382.22 48.3623C384.816 48.3623 386.79 47.8111 388.141 46.7086C389.493 45.5706 390.169 43.9703 390.169 41.9076C390.169 39.8094 389.493 38.2091 388.141 37.1066C386.79 35.9686 384.816 35.3996 382.22 35.3996H375.179V48.3623H382.22Z" fill="black"/>
<path d="M423.692 66.3395C419.815 66.3395 416.312 65.5037 413.183 63.8323C410.089 62.1608 407.653 59.867 405.874 56.9508C404.132 53.9991 403.261 50.6917 403.261 47.0287C403.261 43.3657 404.132 40.0761 405.874 37.16C407.653 34.2082 410.089 31.8966 413.183 30.2252C416.312 28.5537 419.815 27.718 423.692 27.718C427.568 27.718 431.053 28.5537 434.147 30.2252C437.241 31.8966 439.677 34.2082 441.455 37.16C443.233 40.0761 444.122 43.3657 444.122 47.0287C444.122 50.6917 443.233 53.9991 441.455 56.9508C439.677 59.867 437.241 62.1608 434.147 63.8323C431.053 65.5037 427.568 66.3395 423.692 66.3395ZM423.692 58.9779C425.896 58.9779 427.888 58.48 429.666 57.4843C431.444 56.4529 432.831 55.0304 433.827 53.2167C434.858 51.403 435.374 49.3403 435.374 47.0287C435.374 44.7171 434.858 42.6545 433.827 40.8407C432.831 39.027 431.444 37.6223 429.666 36.6265C427.888 35.5952 425.896 35.0795 423.692 35.0795C421.487 35.0795 419.495 35.5952 417.717 36.6265C415.939 37.6223 414.534 39.027 413.503 40.8407C412.507 42.6545 412.009 44.7171 412.009 47.0287C412.009 49.3403 412.507 51.403 413.503 53.2167C414.534 55.0304 415.939 56.4529 417.717 57.4843C419.495 58.48 421.487 58.9779 423.692 58.9779Z" fill="black"/>
<path d="M450.617 28.3581H459.259V58.6578H477.983V65.6993H450.617V28.3581Z" fill="black"/>
<path d="M482.811 28.3581H491.453V65.6993H482.811V28.3581Z" fill="black"/>
<path d="M512.584 66.3395C509.633 66.3395 506.77 65.9483 503.996 65.1659C501.258 64.3479 499.053 63.2988 497.381 62.0185L500.315 55.5105C501.915 56.6841 503.818 57.6265 506.023 58.3378C508.228 59.049 510.433 59.4047 512.638 59.4047C515.092 59.4047 516.905 59.049 518.079 58.3378C519.252 57.5909 519.839 56.613 519.839 55.4038C519.839 54.5147 519.484 53.7857 518.772 53.2167C518.097 52.6121 517.208 52.132 516.105 51.7764C515.038 51.4207 513.58 51.0296 511.731 50.6028C508.886 49.9271 506.556 49.2514 504.743 48.5757C502.929 47.9 501.364 46.8153 500.048 45.3217C498.768 43.828 498.128 41.8365 498.128 39.3471C498.128 37.1777 498.715 35.2218 499.888 33.4792C501.062 31.701 502.822 30.2963 505.169 29.265C507.552 28.2336 510.451 27.718 513.865 27.718C516.247 27.718 518.577 28.0025 520.853 28.5715C523.129 29.1405 525.12 29.9584 526.827 31.0253L524.16 37.5867C520.711 35.6308 517.261 34.6528 513.811 34.6528C511.393 34.6528 509.597 35.044 508.424 35.8263C507.286 36.6087 506.717 37.6401 506.717 38.9203C506.717 40.2006 507.374 41.1608 508.69 41.8009C510.042 42.4055 512.087 43.0101 514.825 43.6147C517.67 44.2904 519.999 44.9661 521.813 45.6418C523.627 46.3175 525.174 47.3843 526.454 48.8424C527.77 50.3005 528.428 52.2743 528.428 54.7637C528.428 56.8975 527.823 58.8534 526.614 60.6316C525.44 62.3742 523.662 63.7611 521.28 64.7925C518.897 65.8238 515.998 66.3395 512.584 66.3395Z" fill="black"/>
<path d="M234.45 131.313C229.115 131.313 224.955 129.837 221.967 126.885C219.016 123.934 217.54 119.719 217.54 114.243V93.3315H226.181V113.923C226.181 120.608 228.955 123.951 234.503 123.951C237.206 123.951 239.269 123.151 240.691 121.551C242.114 119.915 242.825 117.372 242.825 113.923V93.3315H251.36V114.243C251.36 119.719 249.866 123.934 246.879 126.885C243.927 129.837 239.784 131.313 234.45 131.313Z" fill="black"/>
<path d="M294.147 93.3315V130.673H287.052L268.435 108.001V130.673H259.9V93.3315H267.048L285.612 116.003V93.3315H294.147Z" fill="black"/>
<path d="M302.982 93.3315H311.624V130.673H302.982V93.3315Z" fill="black"/>
<path d="M356.178 93.3315L340.015 130.673H331.48L315.369 93.3315H324.705L336.067 120.004L347.59 93.3315H356.178Z" fill="black"/>
<path d="M388.209 123.738V130.673H359.296V93.3315H387.515V100.266H367.884V108.375H385.221V115.096H367.884V123.738H388.209Z" fill="black"/>
<path d="M418.876 130.673L411.675 120.271H411.248H403.726V130.673H395.085V93.3315H411.248C414.555 93.3315 417.418 93.8827 419.837 94.9852C422.29 96.0876 424.175 97.6524 425.491 99.6795C426.807 101.707 427.465 104.107 427.465 106.881C427.465 109.655 426.789 112.055 425.438 114.083C424.122 116.074 422.237 117.603 419.783 118.67L428.158 130.673H418.876ZM418.716 106.881C418.716 104.783 418.041 103.182 416.689 102.08C415.338 100.942 413.364 100.373 410.768 100.373H403.726V113.389H410.768C413.364 113.389 415.338 112.82 416.689 111.682C418.041 110.544 418.716 108.944 418.716 106.881Z" fill="black"/>
<path d="M446.581 131.313C443.629 131.313 440.766 130.922 437.992 130.139C435.254 129.321 433.049 128.272 431.378 126.992L434.312 120.484C435.912 121.657 437.815 122.6 440.02 123.311C442.224 124.022 444.429 124.378 446.634 124.378C449.088 124.378 450.902 124.022 452.075 123.311C453.249 122.564 453.836 121.586 453.836 120.377C453.836 119.488 453.48 118.759 452.769 118.19C452.093 117.585 451.204 117.105 450.102 116.75C449.035 116.394 447.577 116.003 445.727 115.576C442.882 114.9 440.553 114.225 438.739 113.549C436.926 112.873 435.361 111.789 434.045 110.295C432.765 108.801 432.125 106.81 432.125 104.32C432.125 102.151 432.711 100.195 433.885 98.4526C435.058 96.6744 436.819 95.2697 439.166 94.2383C441.549 93.207 444.447 92.6914 447.861 92.6914C450.244 92.6914 452.573 92.9759 454.849 93.5449C457.125 94.1139 459.117 94.9318 460.824 95.9987L458.157 102.56C454.707 100.604 451.257 99.6262 447.808 99.6262C445.39 99.6262 443.594 100.017 442.42 100.8C441.282 101.582 440.713 102.613 440.713 103.894C440.713 105.174 441.371 106.134 442.687 106.774C444.038 107.379 446.083 107.983 448.821 108.588C451.666 109.264 453.996 109.939 455.81 110.615C457.623 111.291 459.17 112.358 460.451 113.816C461.766 115.274 462.424 117.248 462.424 119.737C462.424 121.871 461.82 123.827 460.611 125.605C459.437 127.348 457.659 128.735 455.276 129.766C452.893 130.797 449.995 131.313 446.581 131.313Z" fill="black"/>
<path d="M468.329 93.3315H476.971V130.673H468.329V93.3315Z" fill="black"/>
<path d="M493.568 100.373H481.619V93.3315H514.159V100.373H502.21V130.673H493.568V100.373Z" fill="black"/>
<path d="M536.055 117.443V130.673H527.413V117.337L512.957 93.3315H522.132L532.108 109.922L542.083 93.3315H550.565L536.055 117.443Z" fill="black"/>
</svg>
