<?xml version="1.0" encoding="utf-8"?>
<!-- Generator: Adobe Illustrator 22.0.1, SVG Export Plug-In . SVG Version: 6.00 Build 0)  -->
<svg version="1.1" id="Слой_1" xmlns="http://www.w3.org/2000/svg" xmlns:xlink="http://www.w3.org/1999/xlink" x="0px" y="0px"
	 viewBox="0 0 1920 431.9" style="enable-background:new 0 0 1920 431.9;" xml:space="preserve">
<style type="text/css">
	.st0{fill-rule:evenodd;clip-rule:evenodd;fill:#8BB543;}
</style>
<path class="st0" d="M1583.3,245.3h-108c-16,0-15.9,21,0,21c14.3,0,27.9-0.3,42.1-0.3c1.1,0,2.1,0,3.2,0.1h27
	c18.1,0,39.4,14.7,39.4,34.2v5.4c0,19.4-21.3,34.2-39.4,34.2h-5.9h-24.2v0h-2.8h-84.9v-26.5h111.7c16.7,0,16.2-21,0-21
	c-14.2,0-28.1,0.2-42.1,0.2c-1,0-2,0-3-0.1h-27.1c-18.1,0-39.4-14.7-39.4-34.2V253c0-19.4,21.3-34.2,39.4-34.2h30.2h84.1V245.3
	L1583.3,245.3z M1181.8,266.1l72.2,0.2c15.9,0,16-21,0-21h-19.2h-27.6H1188c-6.3,0-11.5,4.5-12.7,10.4h-0.1v11
	C1177.4,266.3,1179.6,266.1,1181.8,266.1L1181.8,266.1z M1299.7,313.4H1188c-16,0-16-21,0-21c14.2,0,28.1,0.2,42.1,0.2
	c1,0,2,0,3-0.1h27.1c18.1,0,39.4-14.7,39.4-34.2V253c0-19.4-21.3-34.2-39.4-34.2h-25.5h-4.7h-22.9h-25.5
	c-18.1,0-39.4,14.7-39.4,34.2v2.7v44.5v5.4c0,19.4,21.3,34.2,39.4,34.2c39.3,0,78.6,0,117.9,0V313.4L1299.7,313.4z M1751.7,320.3
	V333v6.9h-13.4h-30.2c-18.1,0-39.4-14.8-39.4-34.2v-35.5l0,0V253v-0.1v-76.3c0-16.4,13.3-29.7,29.7-29.7h3.7v72.4c2-0.3,4-0.5,6-0.5
	h30.2h4.2v26.5h-20.1h-20.2v20l0,0v0.1V277v16.2c0,11.1,9.1,20.2,20.2,20.2h29.4V320.3L1751.7,320.3z M1143,218.8
	c-14.7,0.1-34.9-2-45.5,15.5l-48.9,74.2l-48.9-74.2c-9.9-17.1-30.2-15.5-45.5-15.5l66.6,102.5c6.7,10.3,14.4,17.5,24.1,18.5
	c11.8,1.2,22.5-4.8,31.4-18.5C1096.9,289.7,1120.7,253.2,1143,218.8L1143,218.8z M711.3,244.7c0-15,10.3-26,25.2-26l21.9,0.1
	c2,0,4.4,0.5,8.5,4.6l90.6,88.5v-72.1c0-15,10.3-21,25.2-21l21.9,0.1c-8.3,1-13.8,3.2-13.7,23.6v79.1c0,7.5-5.5,18.4-13,18.4h-22.8
	h-7.5c-7.3,0.1-13.2-6.6-18.1-11.5l-84.9-83.6c0,0.8,0,1.7,0,2.6v92.6h-33.4V244.7L711.3,244.7z M1325.8,244.7c0-15,14.8-26,29.7-26
	h3.7h49.6v0h10.5v26.5h-10.5h-29.4c-11.1,0-20.2,9.1-20.2,20.2v74.4h-33.4V244.7L1325.8,244.7z M1920,431.9h-3.7
	c-16.4,0-29.7-13.3-29.7-29.7v-62.8v0c-2,0.3-4,0.5-6,0.5h-52.7h0h-27c-18.1,0-39.4-14.8-39.4-34.2V253c0-17.1,16.5-30.6,32.8-33.6
	v38.8v26.9v15.4v0.3c0.2,7,5.9,12.6,12.9,12.6h67.2c6.1,0,11.3-4.3,12.6-10.1v0c0.2-0.9,0.3-1.9,0.3-2.9v-15.4v-14.8V253
	c0-17.1,16.5-30.6,32.8-33.6v38.8v43.2h0v4.4l0,0.1L1920,431.9L1920,431.9z M1611.1,244.7c0-15,14.8-26,29.7-26h3.7v121.1h-33.4
	V244.7L1611.1,244.7z M561.4,219.4c-16.3,3-32.8,16.5-32.8,33.6v52.7c0,19.4,21.3,34.2,39.4,34.2h39.9h12.8l0,0h27
	c18.1,0,39.4-14.8,39.4-34.2c0-15.8,0-31.7,0-47.5v-38.8c-16.3,3-32.8,16.5-32.8,33.6c0,15.8,0,31.7,0,47.5
	c0,7.1-5.8,12.9-12.9,12.9h-33.6h-33.6c-7.1,0-12.9-5.8-12.9-12.9v-9.6v-32.7V219.4L561.4,219.4z M915.1,244.7c0-15,14.8-26,29.7-26
	h3.7v121.1h-33.4V244.7L915.1,244.7z M0,97.8c0-15,14.8-26,29.7-26h3.7V193H0V97.8L0,97.8z M350.5,92.9c0-15,10.3-21,25.2-21
	l21.9,0.1c-8.4,1-13.8,3.2-13.7,23.6v79.1c0,7.5-5.5,18.4-13,18.4h-30.2h0h0c-7.3,0.1-13.1-6.6-18.1-11.5l-85.3-84v77.2
	c0,7.5-5.5,18.4-13,18.4H194h0h0c-7.3,0.1-13.2-6.6-18.1-11.5L91,97.8v0c0,0.8,0,1.7,0,2.6V193H57.5V97.8c0-15,10.3-26,25.2-26
	l21.9,0.1c2,0,4.4,0.5,8.5,4.6l90.6,88.5V92.9c0-15,10.3-21,25.2-21l21.9,0.1l0,0l0.3,0c2.1,0,4.5,0.5,8.6,4.6l90.6,88.5V92.9
	L350.5,92.9z M1296.4,98.3h-108c-16,0-15.9,21,0,21c14.3,0,27.9-0.2,42.1-0.2c1.1,0,2.1,0,3.2,0.1h27c18.1,0,39.4,14.7,39.4,34.2
	v5.4c0,19.4-21.3,34.2-39.4,34.2h-5.9h-24.2v0h-2.8h-84.9v-26.5h111.7c16.7,0,16.2-21,0-21c-14.2,0-28.1,0.3-42.1,0.3
	c-1,0-2,0-3-0.1h-27.1c-18.1,0-39.4-14.7-39.4-34.2V106c0-19.4,21.3-34.2,39.4-34.2h30.2h84.1V98.3L1296.4,98.3z M1081.9,97.8
	c0-15,14.8-26,29.7-26h3.7V193h-33.4V97.8L1081.9,97.8z M990.3,0v146.3c0,11.1,9.1,20.2,20.2,20.2h44v6.9v12.7v6.9h-28.1h-30.2
	c-18.1,0-39.4-14.8-39.4-34.2V29.7c0-16.4,13.3-29.7,29.7-29.7H990.3L990.3,0z M528,193h-10.5H501h-12.8h-1h-38.9
	c-18.1,0-39.4-14.8-39.4-34.2V106c0-19.4,21.3-34.2,39.4-34.2h8.2H469h9.4h16.9H528c18.1,0,39.4,14.8,39.4,34.2v52.7
	C567.4,178.2,546.1,193,528,193L528,193z M534.6,153.6v-42.3c0-7.1-5.8-12.9-12.9-12.9h-67.2c-5.9,0-11.8,4.2-12.8,11.1l0,0
	c-0.1,0.6-0.1,6-0.1,6.6v37.5c0,7.1,5.8,12.9,12.9,12.9h33.6h33.6C528.8,166.5,534.6,160.7,534.6,153.6L534.6,153.6z M710.7,193h-27
	h0H683h-0.6h-0.6h-0.6h-0.6h-0.6h-0.6H679h-0.6h-0.6h-0.6h-0.6h-0.6h-0.6H675h-0.6h-0.6h-42.9c-2,0-4-0.2-6-0.5v62.8
	c0,16.4-13.3,29.7-29.7,29.7h-3.7V106c0-19.4,21.3-34.2,39.4-34.2h5.2h24.9h4.9h44.7c18.1,0,39.4,14.8,39.4,34.2v52.7
	C750.1,178.2,728.8,193,710.7,193L710.7,193z M717.3,154l0-4.4v-38.4c0-7-5.6-12.7-12.5-12.9h-0.4h-67.2c-7.1,0-12.9,5.8-12.9,12.9
	v42.3c0,7.1,5.8,12.9,12.9,12.9h67.2C711.3,166.5,717.1,160.9,717.3,154L717.3,154z M704.6,98.3l-0.2,0h-67.2v0h67.2H704.6
	L704.6,98.3z M636.3,98.4c-0.5,0-1,0.1-1.5,0.2C635.3,98.5,635.8,98.4,636.3,98.4L636.3,98.4z M634.5,98.6c-0.7,0.1-1.3,0.3-1.9,0.6
	C633.2,98.9,633.9,98.7,634.5,98.6L634.5,98.6z M894,193h-10.5H867h-12.8h-1h-38.9c-18.1,0-39.4-14.8-39.4-34.2V106
	c0-19.4,21.3-34.2,39.4-34.2h8.2h12.5h9.4h16.9H894c18.1,0,39.4,14.8,39.4,34.2v52.7C933.5,178.2,912.2,193,894,193L894,193z
	 M900.7,153.6v-42.3c0-7.1-5.8-12.9-12.9-12.9h-67.2c-5.9,0-11.8,4.2-12.8,11.1l0,0c-0.1,0.6-0.1,6-0.1,6.6v37.5
	c0,7.1,5.8,12.9,12.9,12.9h33.6h33.6C894.9,166.5,900.7,160.7,900.7,153.6L900.7,153.6z"/>
</svg>
